<?xml version="1.0" encoding="UTF-8" standalone="no"?>
<svg xmlns:sketch="http://www.bohemiancoding.com/sketch/ns" xmlns="http://www.w3.org/2000/svg" height="122px" width="120px" version="1.1" xmlns:xlink="http://www.w3.org/1999/xlink" viewBox="0 0 120 122"><!-- Generator: Sketch 3.4.2 (15855) - http://www.bohemiancoding.com/sketch -->
 <title>Page 1</title>
 <desc>Created with Sketch.</desc>
 <g id="Page-1" fill-rule="evenodd" sketch:type="MSPage" fill="none">
  <g sketch:type="MSLayerGroup">
   <path id="Technologies" sketch:type="MSShapeGroup" fill="#FEFEFE" d="m4.5908 121.09v-8.81h3.0948v-1.5h-7.6857l-0.00004206 1.5h3.1094v8.81h1.4815zm6.7072-4.43h4.649v-1.49h-4.649v-2.89h4.752v-1.49h-6.2484v10.26h6.2634v-1.48h-4.767v-2.91zm6.736-0.72c0 1.43 0.587 2.72 1.467 3.66 0.894 0.93 2.156 1.52 3.549 1.52 2.391 0 4.268-1.58 4.855-3.92h-1.452c-0.528 1.56-1.848 2.45-3.403 2.45-0.983 0-1.877-0.42-2.523-1.1-0.645-0.67-1.056-1.58-1.056-2.61 0-1.05 0.411-1.96 1.056-2.64 0.646-0.67 1.54-1.1 2.523-1.1 1.511 0 2.772 0.78 3.315 2.32h1.467c-0.587-2.32-2.435-3.78-4.782-3.78-1.393 0-2.655 0.6-3.549 1.52-0.88 0.94-1.467 2.23-1.467 3.68zm13.571-5.15h-1.481v10.26h1.481v-4.46h4.342v4.46h1.496v-10.26h-1.496v4.33h-4.342v-4.33zm9.773 10.26v-7.18l4.957 7.18h1.174v-10.27h-1.467v7.23l-5.002-7.23-1.144-0.01v10.28h1.482zm17.194-5.14c0 1.06-0.426 1.98-1.086 2.66-0.689 0.69-1.642 1.11-2.654 1.11-1.013 0-1.951-0.42-2.626-1.11-0.675-0.68-1.1-1.61-1.1-2.66 0-1.04 0.425-1.98 1.1-2.65 0.675-0.69 1.613-1.12 2.626-1.12 1.012 0 1.965 0.43 2.654 1.12 0.66 0.67 1.086 1.6 1.086 2.65zm-8.962 0c0 1.46 0.601 2.76 1.525 3.71 0.939 0.97 2.259 1.56 3.697 1.56 1.452 0 2.757-0.59 3.71-1.56 0.924-0.95 1.526-2.25 1.526-3.71 0-1.45-0.602-2.75-1.526-3.71-0.953-0.95-2.258-1.55-3.71-1.55-1.438 0-2.758 0.6-3.697 1.55-0.924 0.96-1.525 2.26-1.525 3.71zm14.437-5.12h-1.482v10.26h6.307v-1.48h-4.825v-8.78zm15.038 5.12c0 1.06-0.426 1.98-1.086 2.66-0.689 0.69-1.643 1.11-2.655 1.11s-1.95-0.42-2.625-1.11c-0.675-0.68-1.1-1.61-1.1-2.66 0-1.04 0.425-1.98 1.1-2.65 0.675-0.69 1.613-1.12 2.625-1.12s1.966 0.43 2.655 1.12c0.66 0.67 1.086 1.6 1.086 2.65zm-8.962 0c0 1.46 0.601 2.76 1.525 3.71 0.939 0.97 2.259 1.56 3.696 1.56 1.452 0 2.758-0.59 3.711-1.56 0.924-0.95 1.526-2.25 1.526-3.71 0-1.45-0.602-2.75-1.526-3.71-0.953-0.95-2.259-1.55-3.711-1.55-1.437 0-2.757 0.6-3.696 1.55-0.924 0.96-1.525 2.26-1.525 3.71zm22.621-1.45c-0.543-2.73-2.919-3.74-4.884-3.74-2.831 0-5.046 2.17-5.046 5.21 0 3.02 2.171 5.19 5.046 5.19 1.862 0 3.975-1.26 4.679-3.23v0.02c0.132-0.34 0.205-0.91 0.278-1.78h-5.529v1.49h3.798c-0.616 1.49-1.965 2.08-3.226 2.08-2.01 0-3.565-1.6-3.565-3.77 0-2.16 1.555-3.73 3.565-3.73 1.305 0 2.889 0.6 3.3 2.26h1.584zm7.073-3.67h-5.294v1.47h1.906v7.31h-1.906v1.48h5.294v-1.48h-1.906v-7.31h1.906v-1.47zm3.593 5.87h4.65v-1.49h-4.65v-2.89h4.76v-1.49h-6.25v10.26h6.26v-1.48h-4.77v-2.91zm14-3.28c-0.26-1.88-1.91-2.7-3.49-2.7-1.19 0-2.42 0.47-3.11 1.36-0.44 0.57-0.61 1.26-0.56 1.95v-0.01c0.17 2.14 2.04 2.49 3.64 2.65 1.03 0.11 2.08 0.24 2.26 1.01 0.03 0.14 0.04 0.25 0.04 0.36 0 1.05-1.2 1.67-2.3 1.67-0.95 0-2.11-0.5-2.21-1.45v0.06l-0.02-0.22-1.49 0.02 0.01 0.28c0.19 1.84 2.11 2.78 3.7 2.78 1.84 0 3.81-1.15 3.81-3.13 0-0.2-0.03-0.45-0.07-0.67-0.4-1.65-2.14-2.01-3.55-2.19-1.1-0.1-2.26-0.23-2.33-1.29-0.03-0.35 0.04-0.69 0.24-0.95 0.42-0.53 1.18-0.77 1.87-0.78 0.89-0.02 1.89 0.38 2.09 1.3l1.47-0.05z"/>
   <path id="Fill-2" sketch:type="MSShapeGroup" fill="#fff" d="m57.713 70.048c-3.602-4.094-6.019-7.046-7.251-8.857-1.123-1.694-2.068-3.435-2.843-5.22v-13.78c0-4.475-0.284-7.714-0.853-9.714-1.801-6.572-7.726-9.857-17.773-9.857h-2.133c-3.792 0-6.874 0.952-9.241 2.857l0.141-25.144-7.9617 0.1432c-2.5593 0-4.6699 0.8351-6.3278 2.5004-1.6593 1.6672-2.4869 3.7859-2.4869 6.3569l0.2845 88.286c0 5.91 2.1322 8.86 6.3975 8.86 2.5584 0 4.6914-0.84 6.3984-2.5 1.706-1.67 2.559-3.79 2.559-6.36v-49.571c0-7.048 2.418-10.572 7.252-10.572h1.421c4.17 0 6.256 2.524 6.256 7.571l-0.142 52.286c0 6.096 2.465 9.146 7.395 9.146 2.559 0 4.667-0.84 6.326-2.5 1.657-1.67 2.488-3.79 2.488-6.36v-11.081c1.045-0.704 2.228-1.061 3.555-1.061 4.359 0 6.633 2.381 6.824 7.143 0.854 0 1.896-0.095 3.128-0.286 3.318-0.476 4.978-2.572 4.978-6.286 0-4.38-2.798-9.714-8.391-16.001"/>
   <path id="Fill-3" sketch:type="MSShapeGroup" fill="#fff" d="m115.58 25.477c-2.65-1.905-6.11-2.857-10.38-2.857-2.75 0-5.684 1.381-8.812 4.142-0.379 0.383-2.701 2.906-6.966 7.572-1.234-2.286-3.508-5.475-6.826-9.572-0.949-0.856-1.897-1.285-2.844-1.285l-0.072 18.788c-1.243 1.089-2.922 1.64-5.046 1.64-3.981 0-6.255-2.571-6.824-7.714-3.793 0-5.783 1.906-5.972 5.715-0.192 4.667 2.606 10.477 8.389 17.428 4.075 4.857 6.541 8 7.394 9.429 0.723 1.179 1.368 2.396 1.943 3.644l-0.096 24.785c0 6.188 2.275 9.288 6.825 9.288 2.56 0 4.693-0.84 6.399-2.5 1.706-1.67 2.559-3.79 2.559-6.36v-44.715c0-5.046 0.426-8.617 1.279-10.714 1.327-3.237 4.03-5.237 8.11-6 0.18 2.192 0.94 4.049 2.27 5.572 1.33 1.524 3.03 2.285 5.12 2.285 2.37 0 4.26-0.904 5.69-2.714 1.42-1.808 2.18-3.951 2.27-6.429 0.09-4.094-1.37-7.237-4.41-9.428"/>
  </g>
 </g>
</svg>
